<svg width="131" height="131" viewBox="0 0 131 131" fill="none" xmlns="http://www.w3.org/2000/svg">
<path d="M121.38 65.1183C121.38 96.0861 96.1859 121.28 65.218 121.28C44.9809 121.28 27.2138 110.518 17.3276 94.4197L9.66623 99.1072C21.1149 117.779 41.7108 130.237 65.218 130.237C101.182 130.237 130.336 101.082 130.336 65.1183C130.336 29.1544 101.182 0 65.218 0V8.95627C96.1859 8.95627 121.38 34.1504 121.38 65.1183Z" fill="#D65751"/>
<path d="M0.0996094 65.1183C0.0996094 77.5748 3.59938 89.2129 9.66607 99.1072L17.3274 94.4197C12.0853 85.8834 9.05588 75.849 9.05588 65.1183C9.05588 34.1504 34.2501 8.95626 65.2179 8.95626V0C29.2541 0 0.0996094 29.1544 0.0996094 65.1183Z" fill="#848381"/>
</svg>
