<svg width="138" height="139" viewBox="0 0 138 139" fill="none" xmlns="http://www.w3.org/2000/svg">
<path d="M68.7588 1V9.95627C101.734 9.95627 128.561 36.7836 128.561 69.7588C128.561 102.734 101.734 129.561 68.7588 129.561C35.7836 129.561 8.95627 102.734 8.95627 69.7588C8.95627 57.8115 12.4916 46.6809 18.5512 37.3313L10.9952 32.4511C4.04031 43.1972 0 56.0056 0 69.7588C0 107.733 30.7843 138.517 68.7588 138.517C106.733 138.517 137.517 107.733 137.517 69.7588C137.517 31.7844 106.733 1 68.7588 1Z" fill="#D65751"/>
<path d="M69.1253 9.69088V0.734619C44.9041 0.734619 23.6103 13.2603 11.3618 32.1857L18.9177 37.0659C29.5831 20.6098 48.0973 9.69088 69.1253 9.69088Z" fill="#848381"/>
</svg>
