<svg width="102" height="102" viewBox="0 0 102 102" fill="none" xmlns="http://www.w3.org/2000/svg">
<path d="M83.8695 13.338C77.8248 16.493 70.5231 22.3289 65.1459 33.0832C54.183 55.009 58.0349 69.2312 58.0349 69.2312M99.4709 38.6634C97.6086 43.4432 93.6902 48.4971 85.8866 52.3423C65.4422 62.4164 57.7386 68.6386 52.7015 87.0089C51.3038 92.1065 49.9061 96.7934 48.4577 101M94.3026 26.0115C93.1903 31.7714 90.4692 39.8549 83.8125 44.935C72.5533 53.5275 63.3682 60.9349 63.3682 60.9349M81.5013 57.6222C81.5013 57.6222 63.3427 65.0102 58.9406 84.4071C54.5385 103.804 54.9018 100.836 54.9018 100.836M101 50.9998C101 78.6139 78.6139 101 50.9998 101C23.3857 101 1 78.6139 1 50.9998C1 23.3857 23.3857 1 50.9998 1C78.6139 1 101 23.3857 101 50.9998ZM51.5164 53.6386C51.5164 61.4729 45.1655 67.8238 37.3312 67.8238C29.497 67.8238 23.1461 61.4729 23.1461 53.6386C23.1461 45.8044 37.3312 20.7869 37.3312 20.7869C37.3312 20.7869 51.5164 45.8044 51.5164 53.6386Z" stroke="#D65751" stroke-width="2" stroke-miterlimit="10" stroke-linejoin="round"/>
</svg>
