<svg width="102" height="102" viewBox="0 0 102 102" fill="none" xmlns="http://www.w3.org/2000/svg">
<path d="M51.9832 27.2488L52.9524 27.0023L52.014 23.3138L51.0181 26.9871L51.9832 27.2488ZM62.7618 39.4038L63.1386 38.4775L62.7618 39.4038ZM37.6716 54.6183C37.3706 55.0814 37.502 55.7008 37.965 56.0018C38.4281 56.3027 39.0475 56.1714 39.3485 55.7083L37.6716 54.6183ZM45.1857 55.2654C45.1857 55.8177 45.6334 56.2654 46.1857 56.2654C46.738 56.2654 47.1857 55.8177 47.1857 55.2654H45.1857ZM38.6834 47.4495C38.2264 47.7597 38.1073 48.3815 38.4175 48.8385C38.7276 49.2955 39.3494 49.4146 39.8064 49.1045L38.6834 47.4495ZM45.3148 48.8485C45.8045 49.1039 46.4085 48.9141 46.664 48.4244C46.9194 47.9348 46.7296 47.3307 46.2399 47.0753L45.3148 48.8485ZM64.8145 55.7083C65.1155 56.1714 65.7349 56.3027 66.198 56.0018C66.661 55.7008 66.7924 55.0814 66.4914 54.6183L64.8145 55.7083ZM56.9774 55.2654C56.9774 55.8177 57.4251 56.2654 57.9774 56.2654C58.5296 56.2654 58.9774 55.8177 58.9774 55.2654H56.9774ZM64.3566 49.1045C64.8136 49.4146 65.4355 49.2955 65.7456 48.8385C66.0557 48.3815 65.9366 47.7597 65.4796 47.4495L64.3566 49.1045ZM57.9231 47.0753C57.4334 47.3307 57.2436 47.9348 57.499 48.4244C57.7545 48.9141 58.3585 49.1039 58.8482 48.8485L57.9231 47.0753ZM58.8967 67.4389H59.8967V66.4389H58.8967V67.4389ZM45.0697 67.4389V66.4389H44.0697V67.4389H45.0697ZM55.1879 61.233C55.1879 60.6808 54.7402 60.233 54.1879 60.233C53.6356 60.233 53.1879 60.6808 53.1879 61.233H55.1879ZM50.7785 61.233C50.7785 60.6808 50.3308 60.233 49.7785 60.233C49.2262 60.233 48.7785 60.6808 48.7785 61.233H50.7785ZM89.9154 49.5529C89.9154 49.0006 89.4676 48.5529 88.9154 48.5529C88.3631 48.5529 87.9154 49.0006 87.9154 49.5529H89.9154ZM85.8126 54C85.2603 54 84.8126 54.4477 84.8126 55C84.8126 55.5523 85.2603 56 85.8126 56V54ZM87.9154 60.4471C87.9154 60.9994 88.3631 61.4471 88.9154 61.4471C89.4676 61.4471 89.9154 60.9994 89.9154 60.4471H87.9154ZM92.0183 56C92.5706 56 93.0183 55.5523 93.0183 55C93.0183 54.4477 92.5706 54 92.0183 54V56ZM22.206 16.2584C22.206 15.7061 21.7583 15.2584 21.206 15.2584C20.6537 15.2584 20.206 15.7061 20.206 16.2584H22.206ZM17.1349 22.4056C16.5826 22.4056 16.1349 22.8533 16.1349 23.4056C16.1349 23.9579 16.5826 24.4056 17.1349 24.4056V22.4056ZM20.206 30.5527C20.206 31.105 20.6537 31.5527 21.206 31.5527C21.7583 31.5527 22.206 31.105 22.206 30.5527H20.206ZM25.2774 24.4056C25.8297 24.4056 26.2774 23.9579 26.2774 23.4056C26.2774 22.8533 25.8297 22.4056 25.2774 22.4056V24.4056ZM16.751 63.7277C16.751 63.1754 16.3033 62.7277 15.751 62.7277C15.1987 62.7277 14.751 63.1754 14.751 63.7277H16.751ZM12.6483 68.1748C12.096 68.1748 11.6483 68.6225 11.6483 69.1748C11.6483 69.7271 12.096 70.1748 12.6483 70.1748V68.1748ZM14.751 74.6219C14.751 75.1742 15.1987 75.6219 15.751 75.6219C16.3033 75.6219 16.751 75.1742 16.751 74.6219H14.751ZM18.854 70.1748C19.4063 70.1748 19.854 69.7271 19.854 69.1748C19.854 68.6225 19.4063 68.1748 18.854 68.1748V70.1748ZM83.9566 88.6006C84.9193 88.3299 84.9193 88.33 84.9193 88.33C84.9193 88.3299 84.9193 88.3298 84.9193 88.3297C84.9192 88.3294 84.919 88.3289 84.9188 88.3281C84.9184 88.3266 84.9177 88.3241 84.9167 88.3207C84.9148 88.3138 84.9119 88.3033 84.908 88.289C84.9001 88.2605 84.8882 88.2173 84.8726 88.1598C84.8414 88.0448 84.7952 87.8727 84.7362 87.6469C84.6183 87.1955 84.4492 86.5297 84.2459 85.6778C83.8393 83.9738 83.2965 81.5264 82.7534 78.5609C81.6664 72.6251 80.5828 64.6361 80.5828 56.3881H78.5828C78.5828 64.798 79.6862 72.9152 80.7861 78.9212C81.3365 81.9266 81.887 84.4089 82.3005 86.142C82.5073 87.0086 82.6799 87.6882 82.8012 88.1524C82.8618 88.3845 82.9096 88.5629 82.9425 88.6838C82.9589 88.7443 82.9716 88.7905 82.9802 88.8219C82.9846 88.8376 82.9879 88.8496 82.9902 88.8578C82.9914 88.8619 82.9923 88.8651 82.9929 88.8674C82.9932 88.8685 82.9934 88.8694 82.9936 88.87C82.9937 88.8704 82.9938 88.8707 82.9939 88.8708C82.9939 88.8711 82.994 88.8713 83.9566 88.6006ZM80.5828 56.3881C80.5828 48.0824 80.3493 37.5936 76.7673 29.1728C74.9659 24.9379 72.302 21.1846 68.3655 18.4958C64.4262 15.8052 59.2901 14.2337 52.6365 14.2337V16.2337C58.9661 16.2337 63.6899 17.7243 67.2374 20.1473C70.7877 22.5723 73.2375 25.9843 74.9269 29.9557C78.3265 37.9477 78.5828 48.0361 78.5828 56.3881H80.5828ZM52.6365 14.2337C45.9776 14.2337 40.6802 15.838 36.4945 18.5457C32.3132 21.2507 29.3012 25.0178 27.1464 29.2538C22.8525 37.6948 21.9138 48.0949 21.9138 56.0615H23.9138C23.9138 48.1869 24.8531 38.1731 28.929 30.1606C30.9591 26.1697 33.7548 22.7001 37.5808 20.225C41.4025 17.7527 46.312 16.2337 52.6365 16.2337V14.2337ZM21.9138 56.0615C21.9138 64.0991 23.2001 69.9891 24.4802 74.6964C25.129 77.0824 25.741 79.0464 26.2159 80.9257C26.6828 82.7733 26.9765 84.3952 26.9765 85.9475H28.9765C28.9765 84.152 28.6373 82.3443 28.1549 80.4357C27.6806 78.5588 27.027 76.4401 26.4101 74.1716C25.1588 69.5703 23.9138 63.8651 23.9138 56.0615H21.9138ZM26.9765 85.9475C26.9765 89.1827 26.4188 91.0694 25.9207 92.1092C25.6718 92.6289 25.4352 92.9427 25.2833 93.1129C25.2069 93.1985 25.1506 93.2493 25.1229 93.2727C25.109 93.2844 25.102 93.2895 25.1032 93.2886C25.1037 93.2882 25.1063 93.2864 25.111 93.2831C25.1133 93.2815 25.1162 93.2796 25.1196 93.2773C25.1214 93.2762 25.1232 93.275 25.1252 93.2737C25.1262 93.2731 25.1272 93.2724 25.1283 93.2717C25.1288 93.2714 25.1296 93.2709 25.1299 93.2707C25.1307 93.2701 25.1316 93.2696 25.6688 94.1131C26.206 94.9565 26.2068 94.956 26.2077 94.9554C26.208 94.9552 26.2089 94.9547 26.2095 94.9543C26.2107 94.9535 26.2119 94.9527 26.2132 94.9519C26.2158 94.9502 26.2184 94.9485 26.2213 94.9466C26.2269 94.9429 26.2331 94.9387 26.2398 94.9341C26.2532 94.925 26.2688 94.914 26.2862 94.9012C26.3212 94.8756 26.3638 94.8425 26.413 94.801C26.5114 94.7178 26.6354 94.6015 26.7754 94.4446C27.0562 94.1301 27.3965 93.6579 27.7245 92.9732C28.3802 91.6042 28.9765 89.408 28.9765 85.9475H26.9765ZM51.9832 27.2488C51.0181 26.9871 51.0182 26.9868 51.0182 26.9865C51.0182 26.9865 51.0183 26.9863 51.0183 26.9862C51.0183 26.9861 51.0183 26.9863 51.0182 26.9866C51.018 26.9873 51.0176 26.9889 51.0169 26.9913C51.0156 26.9961 51.0133 27.0043 51.01 27.0158C51.0034 27.0389 50.9929 27.0751 50.9783 27.1239C50.949 27.2213 50.9032 27.3685 50.8395 27.5595C50.7121 27.9416 50.5133 28.4979 50.2314 29.1806C49.667 30.5473 48.7734 32.4117 47.4603 34.3934C44.8324 38.3596 40.5606 42.7453 33.9219 44.6198L34.4653 46.5445C41.7081 44.4995 46.3311 39.7186 49.1276 35.498C50.5268 33.3863 51.4778 31.4023 52.08 29.9439C52.3814 29.214 52.5963 28.6137 52.7368 28.1922C52.8071 27.9813 52.8589 27.8151 52.8936 27.6995C52.911 27.6417 52.9241 27.5965 52.9332 27.5648C52.9377 27.5489 52.9412 27.5364 52.9438 27.5273C52.945 27.5228 52.946 27.5191 52.9468 27.5163C52.9472 27.5149 52.9475 27.5137 52.9478 27.5127C52.9479 27.5123 52.9481 27.5117 52.9481 27.5115C52.9483 27.511 52.9484 27.5105 51.9832 27.2488ZM51.9832 27.2488C51.0141 27.4954 51.0142 27.4958 51.0143 27.4963C51.0144 27.4965 51.0145 27.4969 51.0146 27.4973C51.0148 27.4981 51.015 27.4991 51.0153 27.5001C51.0159 27.5022 51.0165 27.5049 51.0174 27.508C51.019 27.5144 51.0212 27.5228 51.024 27.5332C51.0296 27.5541 51.0376 27.5831 51.048 27.6198C51.0688 27.6932 51.0995 27.7976 51.1412 27.9293C51.2244 28.1928 51.3515 28.5666 51.5309 29.0232C51.8894 29.9354 52.459 31.1845 53.3088 32.5473C55.0072 35.2711 57.8481 38.4842 62.3849 40.33L63.1386 38.4775C59.1016 36.835 56.5532 33.9707 55.0059 31.4891C54.2327 30.2492 53.7153 29.1136 53.3924 28.2918C53.2312 27.8814 53.1191 27.5509 53.0482 27.3268C53.0128 27.2147 52.9878 27.1294 52.9721 27.0742C52.9643 27.0466 52.9588 27.0265 52.9556 27.0144C52.9539 27.0083 52.9529 27.0043 52.9523 27.0022C52.9521 27.0012 52.9519 27.0007 52.952 27.0007C52.952 27.0007 52.952 27.0008 52.9521 27.0011C52.9521 27.0012 52.9522 27.0015 52.9522 27.0016C52.9523 27.0019 52.9524 27.0023 51.9832 27.2488ZM62.3849 40.33C65.5104 41.6017 67.208 43.2341 68.121 44.493C68.5805 45.1264 68.8485 45.6754 68.9994 46.0526C69.0748 46.2413 69.121 46.3871 69.147 46.4789C69.16 46.5248 69.1679 46.5571 69.172 46.5745C69.174 46.5832 69.175 46.5882 69.1752 46.5892C69.1753 46.5898 69.1752 46.5893 69.175 46.5878C69.1748 46.5871 69.1746 46.5861 69.1744 46.5849C69.1743 46.5843 69.1741 46.5836 69.174 46.5828C69.1739 46.5825 69.1738 46.5818 69.1738 46.5817C69.1737 46.581 69.1735 46.5804 70.1566 46.397C71.1396 46.2136 71.1395 46.2129 71.1394 46.2122C71.1393 46.2119 71.1392 46.2112 71.1391 46.2107C71.1389 46.2097 71.1387 46.2087 71.1385 46.2075C71.138 46.2052 71.1375 46.2027 71.137 46.1999C71.1359 46.1942 71.1345 46.1875 71.1329 46.1798C71.1297 46.1644 71.1254 46.1448 71.1199 46.1213C71.1089 46.0742 71.0932 46.0113 71.0713 45.934C71.0275 45.7795 70.9593 45.5675 70.8564 45.3101C70.6504 44.795 70.3055 44.0984 69.74 43.3187C68.6032 41.7513 66.6034 39.8871 63.1386 38.4775L62.3849 40.33ZM70.8952 51.3255C69.8968 51.3819 69.8968 51.3817 69.8968 51.3816C69.8968 51.3816 69.8968 51.3815 69.8968 51.3816C69.8968 51.3817 69.8969 51.382 69.8969 51.3826C69.8969 51.3837 69.897 51.3856 69.8972 51.3884C69.8975 51.394 69.8979 51.403 69.8985 51.4152C69.8997 51.4397 69.9015 51.4773 69.9035 51.5274C69.9076 51.6275 69.9129 51.7775 69.9175 51.9719C69.9266 52.3608 69.9327 52.9269 69.9205 53.6275C69.8959 55.0303 69.7976 56.964 69.5036 59.0886C68.908 63.3936 67.5385 68.2524 64.5756 71.193L65.9845 72.6125C69.439 69.1839 70.8771 63.7541 71.4847 59.3627C71.7924 57.1392 71.8946 55.1228 71.9202 53.6625C71.933 52.9316 71.9266 52.338 71.9169 51.925C71.9121 51.7185 71.9064 51.5569 71.9019 51.4459C71.8996 51.3903 71.8976 51.3474 71.8962 51.3177C71.8954 51.3028 71.8949 51.2913 71.8944 51.2832C71.8942 51.2791 71.894 51.2759 71.8939 51.2736C71.8938 51.2724 71.8938 51.2715 71.8937 51.2707C71.8937 51.2703 71.8937 51.2699 71.8937 51.2698C71.8937 51.2694 71.8937 51.2691 70.8952 51.3255ZM64.5756 71.193C61.3166 74.4275 59.228 76.6747 57.3256 78.1566C55.4986 79.5799 53.9444 80.2115 51.8036 80.2115V82.2115C54.4758 82.2115 56.4511 81.3732 58.5547 79.7344C60.583 78.1543 62.8262 75.7471 65.9845 72.6125L64.5756 71.193ZM51.8036 80.2115C49.6628 80.2115 48.1085 79.5799 46.2815 78.1567C44.3792 76.6747 42.2906 74.4275 39.0315 71.193L37.6227 72.6125C40.781 75.7471 43.0241 78.1543 45.0524 79.7344C47.1561 81.3732 49.1314 82.2115 51.8036 82.2115V80.2115ZM39.0315 71.193C36.0687 68.2524 34.6992 63.3936 34.1036 59.0886C33.8096 56.964 33.7113 55.0303 33.6867 53.6275C33.6744 52.9269 33.6806 52.3608 33.6897 51.9719C33.6943 51.7775 33.6996 51.6275 33.7036 51.5274C33.7057 51.4773 33.7074 51.4397 33.7086 51.4152C33.7092 51.403 33.7097 51.394 33.71 51.3884C33.7101 51.3856 33.7102 51.3837 33.7103 51.3826C33.7103 51.382 33.7103 51.3817 33.7103 51.3816C33.7103 51.3815 33.7103 51.3816 33.7103 51.3816C33.7103 51.3817 33.7103 51.3819 32.7119 51.3255C31.7135 51.2691 31.7135 51.2694 31.7135 51.2698C31.7135 51.2699 31.7134 51.2703 31.7134 51.2707C31.7134 51.2715 31.7133 51.2724 31.7133 51.2736C31.7131 51.2759 31.713 51.2791 31.7127 51.2832C31.7123 51.2913 31.7117 51.3028 31.711 51.3177C31.7095 51.3474 31.7076 51.3903 31.7053 51.4459C31.7008 51.5569 31.6951 51.7185 31.6903 51.925C31.6806 52.338 31.6742 52.9316 31.687 53.6625C31.7126 55.1228 31.8148 57.1392 32.1224 59.3627C32.73 63.7541 34.1681 69.1839 37.6227 72.6125L39.0315 71.193ZM36.4686 94.1131C37.0011 94.9595 37.002 94.9589 37.003 94.9583C37.0033 94.9581 37.0043 94.9575 37.0049 94.9571C37.0063 94.9563 37.0076 94.9554 37.0091 94.9545C37.0119 94.9526 37.0149 94.9507 37.0181 94.9486C37.0245 94.9444 37.0315 94.9397 37.0393 94.9345C37.0547 94.924 37.0728 94.9113 37.0933 94.8962C37.1344 94.866 37.1853 94.8264 37.2443 94.776C37.3625 94.6751 37.5129 94.5314 37.6836 94.3345C38.0257 93.9398 38.4441 93.3371 38.8491 92.4448C39.6578 90.6629 40.4082 87.7374 40.4082 83.0079H38.4082C38.4082 87.5346 37.6889 90.1617 37.0278 91.6183C36.6979 92.3453 36.3814 92.7833 36.1723 93.0246C36.0674 93.1456 35.9881 93.2187 35.9456 93.2551C35.9243 93.2733 35.9119 93.2824 35.91 93.2839C35.909 93.2846 35.9106 93.2834 35.9149 93.2805C35.9171 93.279 35.9199 93.2771 35.9235 93.2748C35.9252 93.2736 35.9272 93.2723 35.9293 93.271C35.9304 93.2703 35.9315 93.2696 35.9326 93.2689C35.9332 93.2685 35.9341 93.2679 35.9344 93.2677C35.9353 93.2672 35.9362 93.2666 36.4686 94.1131ZM40.4082 83.0079C40.4082 78.3451 40.1362 75.5103 39.854 73.8196C39.7127 72.9731 39.5675 72.4049 39.4488 72.0325C39.3893 71.8459 39.3359 71.7066 39.292 71.6047C39.27 71.5536 39.2503 71.5117 39.2333 71.4777C39.2248 71.4607 39.2169 71.4457 39.2097 71.4324C39.2061 71.4258 39.2027 71.4197 39.1995 71.4139C39.1979 71.411 39.1963 71.4083 39.1948 71.4056C39.194 71.4043 39.1933 71.403 39.1925 71.4017C39.1922 71.4011 39.1916 71.4001 39.1914 71.3998C39.1909 71.3989 39.1904 71.398 38.3271 71.9027C37.4639 72.4075 37.4633 72.4066 37.4628 72.4057C37.4626 72.4054 37.4621 72.4045 37.4618 72.4039C37.4611 72.4027 37.4604 72.4016 37.4598 72.4005C37.4585 72.3983 37.4574 72.3962 37.4563 72.3943C37.4541 72.3904 37.4522 72.387 37.4507 72.3842C37.4476 72.3785 37.4458 72.375 37.4452 72.3737C37.444 72.3714 37.4475 72.3782 37.4551 72.3958C37.4704 72.4312 37.5014 72.5086 37.5433 72.64C37.6273 72.9035 37.7523 73.3761 37.8813 74.1489C38.1397 75.6967 38.4082 78.4145 38.4082 83.0079H40.4082ZM67.0079 94.1131C67.9676 93.8322 67.9676 93.8323 67.9677 93.8323C67.9676 93.8323 67.9677 93.8324 67.9677 93.8323C67.9676 93.8323 67.9676 93.8321 67.9675 93.8319C67.9674 93.8314 67.9671 93.8305 67.9667 93.8292C67.966 93.8266 67.9648 93.8224 67.9631 93.8166C67.9598 93.805 67.9546 93.7872 67.9478 93.7632C67.9342 93.7154 67.914 93.6432 67.888 93.5485C67.836 93.3591 67.7611 93.0796 67.671 92.7241C67.4907 92.0128 67.2496 90.9987 67.0086 89.7933C66.5248 87.3743 66.0481 84.2211 66.0481 81.2115H64.0481C64.0481 84.4076 64.5514 87.7053 65.0474 90.1856C65.2963 91.4299 65.5452 92.4776 65.7323 93.2156C65.8259 93.5848 65.9042 93.8769 65.9593 94.0779C65.9869 94.1785 66.0088 94.2562 66.0239 94.3095C66.0314 94.3361 66.0373 94.3566 66.0414 94.3707C66.0434 94.3778 66.045 94.3833 66.0462 94.3872C66.0467 94.3891 66.0472 94.3907 66.0475 94.3918C66.0477 94.3924 66.0478 94.3928 66.0479 94.3932C66.048 94.3934 66.048 94.3936 66.048 94.3936C66.0481 94.3938 66.0481 94.394 67.0079 94.1131ZM66.0481 81.2115C66.0481 78.121 66.1059 75.8063 66.1634 74.2673C66.1922 73.4977 66.2208 72.9221 66.2422 72.5405C66.2529 72.3497 66.2618 72.2073 66.268 72.1134C66.271 72.0665 66.2734 72.0317 66.275 72.009C66.2758 71.9976 66.2764 71.9893 66.2768 71.984C66.277 71.9814 66.2771 71.9795 66.2772 71.9784C66.2772 71.9778 66.2773 71.9774 66.2773 71.9772C66.2773 71.9772 66.2773 71.9771 66.2773 71.9771L66.2773 71.9771C66.2773 71.9772 66.2773 71.9773 65.2801 71.9027C64.2828 71.8282 64.2828 71.8283 64.2828 71.8284C64.2828 71.8284 64.2828 71.8285 64.2828 71.8286C64.2828 71.8288 64.2828 71.829 64.2827 71.8293C64.2827 71.8299 64.2826 71.8307 64.2826 71.8316C64.2824 71.8335 64.2822 71.8362 64.282 71.8396C64.2815 71.8464 64.2808 71.8563 64.2799 71.8692C64.2781 71.895 64.2755 71.9329 64.2722 71.9829C64.2657 72.083 64.2564 72.2315 64.2454 72.4286C64.2233 72.8226 64.194 73.4106 64.1648 74.1926C64.1063 75.7565 64.0481 78.0961 64.0481 81.2115H66.0481ZM39.3485 55.7083C39.5868 55.3417 40.0749 54.9382 40.8046 54.6233C41.5209 54.3142 42.4006 54.1219 43.3277 54.1219V52.1219C42.1352 52.1219 40.9852 52.3671 40.0121 52.787C39.0525 53.2012 38.1915 53.8184 37.6716 54.6183L39.3485 55.7083ZM43.3277 54.1219C43.8662 54.1219 44.3731 54.2932 44.7229 54.5454C45.0728 54.7977 45.1857 55.0614 45.1857 55.2654H47.1857C47.1857 54.2445 46.6044 53.4365 45.8928 52.9232C45.1811 52.41 44.2591 52.1219 43.3277 52.1219V54.1219ZM39.8064 49.1045C40.6988 48.499 41.5839 48.2155 42.7793 48.2155V46.2155C41.192 46.2155 39.9142 46.6144 38.6834 47.4495L39.8064 49.1045ZM42.7793 48.2155C43.515 48.2155 43.9924 48.3028 44.3411 48.4106C44.6982 48.521 44.9564 48.6614 45.3148 48.8485L46.2399 47.0753C45.9162 46.9064 45.4939 46.6736 44.9319 46.4998C44.3613 46.3234 43.6807 46.2155 42.7793 46.2155V48.2155ZM66.4914 54.6183C65.9715 53.8184 65.1105 53.2012 64.1509 52.787C63.1778 52.3671 62.0278 52.1219 60.8353 52.1219V54.1219C61.7624 54.1219 62.6421 54.3142 63.3584 54.6233C64.0881 54.9382 64.5763 55.3417 64.8145 55.7083L66.4914 54.6183ZM60.8353 52.1219C59.9039 52.1219 58.9819 52.41 58.2702 52.9232C57.5586 53.4365 56.9774 54.2445 56.9774 55.2654H58.9774C58.9774 55.0614 59.0902 54.7977 59.4401 54.5454C59.7899 54.2932 60.2969 54.1219 60.8353 54.1219V52.1219ZM65.4796 47.4495C64.2489 46.6144 62.971 46.2155 61.3837 46.2155V48.2155C62.5792 48.2155 63.4643 48.499 64.3566 49.1045L65.4796 47.4495ZM61.3837 46.2155C60.4823 46.2155 59.8017 46.3234 59.2312 46.4998C58.6691 46.6736 58.2468 46.9064 57.9231 47.0753L58.8482 48.8485C59.2067 48.6614 59.4648 48.521 59.822 48.4106C60.1706 48.3028 60.648 48.2155 61.3837 48.2155V46.2155ZM57.8967 67.4389C57.8967 70.3852 55.3155 72.8897 51.9832 72.8897V74.8897C56.2874 74.8897 59.8967 71.618 59.8967 67.4389H57.8967ZM51.9832 72.8897C48.6509 72.8897 46.0697 70.3852 46.0697 67.4389H44.0697C44.0697 71.618 47.6791 74.8897 51.9832 74.8897V72.8897ZM45.0697 68.4389H58.8967V66.4389H45.0697V68.4389ZM53.1879 61.233C53.1879 61.2933 53.1572 61.4286 52.947 61.5843C52.7369 61.7399 52.3995 61.8662 51.9832 61.8662V63.8662C52.7846 63.8662 53.5495 63.6269 54.1374 63.1914C54.7252 62.756 55.1879 62.0747 55.1879 61.233H53.1879ZM51.9832 61.8662C51.567 61.8662 51.2295 61.7399 51.0195 61.5843C50.8093 61.4286 50.7785 61.2933 50.7785 61.233H48.7785C48.7785 62.0747 49.2413 62.756 49.829 63.1914C50.4169 63.6269 51.1818 63.8662 51.9832 63.8662V61.8662ZM87.9154 49.5529C87.9154 50.9158 87.5985 52.1005 87.1376 52.9096C86.6603 53.7477 86.154 54 85.8126 54V56C87.1847 56 88.2299 55.033 88.8755 53.8995C89.5376 52.7372 89.9154 51.1983 89.9154 49.5529H87.9154ZM85.8126 56C86.154 56 86.6603 56.2523 87.1376 57.0904C87.5985 57.8995 87.9154 59.0842 87.9154 60.4471H89.9154C89.9154 58.8017 89.5376 57.2628 88.8755 56.1005C88.2299 54.967 87.1847 54 85.8126 54V56ZM89.9154 60.4471C89.9154 59.0842 90.2322 57.8995 90.6931 57.0904C91.1705 56.2524 91.6768 56 92.0183 56V54C90.6462 54 89.601 54.967 88.9553 56.1004C88.2932 57.2628 87.9154 58.8016 87.9154 60.4471H89.9154ZM92.0183 54C91.6768 54 91.1705 53.7476 90.6931 52.9096C90.2322 52.1004 89.9154 50.9158 89.9154 49.5529H87.9154C87.9154 51.1983 88.2932 52.7372 88.9553 53.8995C89.601 55.033 90.6462 56 92.0183 56V54ZM20.206 16.2584C20.206 18.0908 19.7808 19.7005 19.1446 20.8173C18.492 21.9629 17.7437 22.4056 17.1349 22.4056V24.4056C18.7744 24.4056 20.0616 23.2482 20.8825 21.8072C21.7198 20.3372 22.206 18.3733 22.206 16.2584H20.206ZM17.1349 24.4056C17.7437 24.4056 18.492 24.8482 19.1446 25.9939C19.7808 27.1106 20.206 28.7203 20.206 30.5527H22.206C22.206 28.4378 21.7198 26.4739 20.8825 25.004C20.0616 23.5629 18.7744 22.4056 17.1349 22.4056V24.4056ZM22.206 30.5527C22.206 28.7204 22.6312 27.1107 23.2674 25.9939C23.9201 24.8482 24.6685 24.4056 25.2774 24.4056V22.4056C23.6379 22.4056 22.3505 23.5628 21.5296 25.0039C20.6922 26.4739 20.206 28.4378 20.206 30.5527H22.206ZM25.2774 22.4056C24.6685 22.4056 23.9201 21.9629 23.2674 20.8172C22.6312 19.7004 22.206 18.0908 22.206 16.2584H20.206C20.206 18.3733 20.6922 20.3372 21.5296 21.8072C22.3505 23.2483 23.6379 24.4056 25.2774 24.4056V22.4056ZM14.751 63.7277C14.751 65.0906 14.4342 66.2752 13.9733 67.0844C13.4959 67.9224 12.9897 68.1748 12.6483 68.1748V70.1748C14.0204 70.1748 15.0655 69.2077 15.7112 68.0743C16.3732 66.912 16.751 65.3731 16.751 63.7277H14.751ZM12.6483 70.1748C12.9897 70.1748 13.496 70.4271 13.9733 71.2651C14.4342 72.0743 14.751 73.2589 14.751 74.6219H16.751C16.751 72.9764 16.3732 71.4376 15.7112 70.2752C15.0655 69.1418 14.0204 68.1748 12.6483 68.1748V70.1748ZM16.751 74.6219C16.751 73.259 17.0679 72.0743 17.5288 71.2652C18.0062 70.4272 18.5125 70.1748 18.854 70.1748V68.1748C17.4819 68.1748 16.4367 69.1417 15.791 70.2752C15.1288 71.4375 14.751 72.9764 14.751 74.6219H16.751ZM18.854 68.1748C18.5125 68.1748 18.0062 67.9224 17.5288 67.0844C17.0679 66.2752 16.751 65.0905 16.751 63.7277H14.751C14.751 65.3731 15.1288 66.912 15.791 68.0743C16.4367 69.2078 17.4819 70.1748 18.854 70.1748V68.1748ZM100 51C100 78.062 78.062 100 51 100V102C79.1665 102 102 79.1665 102 51H100ZM51 100C23.938 100 2 78.062 2 51H0C0 79.1665 22.8335 102 51 102V100ZM2 51C2 23.938 23.938 2 51 2V0C22.8335 0 0 22.8335 0 51H2ZM51 2C78.062 2 100 23.938 100 51H102C102 22.8335 79.1665 0 51 0V2Z" fill="#D65751"/>
</svg>
