<svg width="101" height="101" viewBox="0 0 101 101" fill="none" xmlns="http://www.w3.org/2000/svg">
<path d="M50.9752 26.3857L51.6823 27.0928V27.0928L50.9752 26.3857ZM61.9333 26.3857L61.2262 27.0928V27.0928L61.9333 26.3857ZM73.8735 54.9698L73.1664 54.2627L73.8735 54.9698ZM79.3526 54.9698L80.0597 54.2627L79.3526 54.9698ZM34.5698 37.7476L33.636 37.3897L34.5698 37.7476ZM54.8488 71.3352L55.7147 70.8351L54.8488 71.3352ZM30.7245 42.4294L29.7907 42.0715L30.7245 42.4294ZM49.1437 72.9368L48.2778 73.4369L49.1437 72.9368ZM26.4238 47.2106L27.3576 47.5685L26.4238 47.2106ZM42.6909 74.1535L43.5568 73.6534L42.6909 74.1535ZM98.6842 50.3421C98.6842 77.0407 77.0407 98.6842 50.3421 98.6842V100.684C78.1453 100.684 100.684 78.1453 100.684 50.3421H98.6842ZM50.3421 98.6842C23.6435 98.6842 2 77.0407 2 50.3421H0C0 78.1453 22.5389 100.684 50.3421 100.684V98.6842ZM2 50.3421C2 23.6435 23.6435 2 50.3421 2V0C22.5389 0 0 22.5389 0 50.3421H2ZM50.3421 2C77.0407 2 98.6842 23.6435 98.6842 50.3421H100.684C100.684 22.5389 78.1453 0 50.3421 0V2ZM39.6904 39.0847L51.6823 27.0928L50.2681 25.6786L38.2762 37.6705L39.6904 39.0847ZM51.6823 27.0928C54.3178 24.4574 58.5907 24.4574 61.2262 27.0928L62.6404 25.6786C59.2239 22.2621 53.6846 22.2621 50.2681 25.6786L51.6823 27.0928ZM61.2262 27.0928L97.1264 62.9931L98.5406 61.5789L62.6404 25.6786L61.2262 27.0928ZM65.4317 64.8259L74.5806 55.6769L73.1664 54.2627L64.0175 63.4117L65.4317 64.8259ZM74.5806 55.6769C75.7031 54.5544 77.523 54.5544 78.6455 55.6769L80.0597 54.2627C78.1562 52.3592 75.0699 52.3592 73.1664 54.2627L74.5806 55.6769ZM78.6455 55.6769L94.554 71.5854L95.9682 70.1712L80.0597 54.2627L78.6455 55.6769ZM43.9807 43.3749L56.7996 30.556L55.3854 29.1418L42.5665 41.9607L43.9807 43.3749ZM48.271 47.6651L61.0899 34.8462L59.6756 33.432L46.8567 46.2509L48.271 47.6651ZM52.5609 51.9553L65.3798 39.1364L63.9656 37.7222L51.1467 50.5411L52.5609 51.9553ZM56.8512 56.2455L69.6701 43.4266L68.2558 42.0124L55.4369 54.8313L56.8512 56.2455ZM61.1414 60.5357L73.9603 47.7168L72.5461 46.3026L59.7272 59.1215L61.1414 60.5357ZM24.3036 9.13336C28.4262 10.7229 32.4166 13.3569 34.5632 17.7121C36.7008 22.0491 37.1156 28.3101 33.636 37.3897L35.5036 38.1054C39.1088 28.6979 38.8194 21.8236 36.3571 16.8279C33.9038 11.8504 29.3986 8.95435 25.0231 7.26727L24.3036 9.13336ZM33.636 37.3897C30.8344 44.7003 30.2241 49.9266 31.1568 53.823C32.1042 57.7807 34.5992 60.1933 37.5569 61.9523C39.0244 62.825 40.6209 63.5467 42.2084 64.2199C43.8172 64.9021 45.3873 65.5231 46.907 66.2271C49.9388 67.6315 52.4876 69.2467 53.9829 71.8354L55.7147 70.8351C53.8991 67.6918 50.8716 65.8594 47.7477 64.4123C46.1896 63.6906 44.5371 63.035 42.9892 62.3786C41.42 61.7131 39.9258 61.0342 38.5792 60.2333C35.9088 58.6452 33.8826 56.6187 33.1019 53.3574C32.3065 50.0348 32.7611 45.2619 35.5036 38.1054L33.636 37.3897ZM53.9829 71.8354C57.2318 77.4601 55.7389 82.6313 53.3293 86.518C52.1222 88.465 50.6992 90.0588 49.5722 91.1687C49.0102 91.7222 48.5257 92.1516 48.1842 92.4406C48.0136 92.585 47.879 92.6942 47.7887 92.766C47.7436 92.8018 47.7095 92.8284 47.6876 92.8453C47.6766 92.8538 47.6687 92.8598 47.6639 92.8635C47.6616 92.8653 47.66 92.8665 47.6592 92.8671C47.6588 92.8674 47.6586 92.8675 47.6586 92.8675C47.6586 92.8675 47.6588 92.8674 47.6588 92.8674C47.659 92.8672 47.6593 92.867 48.2601 93.6664C48.861 94.4657 48.8613 94.4655 48.8618 94.4651C48.862 94.465 48.8625 94.4646 48.8629 94.4643C48.8637 94.4637 48.8648 94.4629 48.866 94.4619C48.8685 94.46 48.8718 94.4575 48.876 94.4544C48.8842 94.4481 48.8957 94.4393 48.9102 94.4281C48.9393 94.4056 48.9807 94.3734 49.0333 94.3315C49.1387 94.2477 49.2892 94.1256 49.4764 93.9671C49.8507 93.6503 50.3731 93.187 50.9756 92.5937C52.1776 91.4098 53.7142 89.6929 55.0291 87.5719C57.6637 83.3224 59.4652 77.3281 55.7147 70.8351L53.9829 71.8354ZM16.5898 15.1434C20.8065 16.012 25.9654 17.8942 29.1359 21.9009C32.2416 25.8255 33.632 32.0479 29.7907 42.0715L31.6583 42.7872C35.6648 32.3324 34.381 25.3061 30.7043 20.6598C27.0924 16.0955 21.3609 14.0842 16.9933 13.1845L16.5898 15.1434ZM29.7907 42.0715C27.2433 48.7188 26.6818 53.4865 27.5353 57.0519C28.4035 60.6786 30.6912 62.8876 33.3908 64.4931C34.7292 65.2891 36.184 65.9465 37.6267 66.5583C39.0908 67.1792 40.5132 67.7417 41.8918 68.3803C44.6412 69.6539 46.9343 71.111 48.2778 73.4369L50.0097 72.4366C48.3459 69.5562 45.5741 67.8819 42.7324 66.5655C41.3154 65.9092 39.8107 65.3121 38.4076 64.7171C36.9831 64.113 35.6306 63.4983 34.4131 62.7742C32.0007 61.3395 30.1818 59.5166 29.4804 56.5863C28.7642 53.5947 29.17 49.2803 31.6583 42.7872L29.7907 42.0715ZM48.2778 73.4369C51.2058 78.506 49.864 83.1652 47.6857 86.6788C46.5942 88.4393 45.3069 89.8813 44.2867 90.886C43.7781 91.3869 43.3397 91.7753 43.0311 92.0366C42.8769 92.1671 42.7554 92.2656 42.674 92.3303C42.6334 92.3626 42.6028 92.3865 42.5832 92.4016C42.5734 92.4092 42.5664 92.4145 42.5622 92.4177C42.5601 92.4193 42.5588 92.4203 42.5581 92.4208C42.5578 92.4211 42.5577 92.4212 42.5577 92.4211C42.5578 92.4211 42.558 92.421 42.558 92.421C42.5582 92.4208 42.5585 92.4206 43.1593 93.2199C43.7602 94.0193 43.7605 94.019 43.7609 94.0187C43.7611 94.0186 43.7616 94.0182 43.762 94.0179C43.7628 94.0173 43.7638 94.0166 43.765 94.0157C43.7673 94.0139 43.7704 94.0115 43.7742 94.0086C43.7819 94.0028 43.7925 93.9947 43.8058 93.9844C43.8326 93.9637 43.8705 93.9341 43.9187 93.8958C44.015 93.8192 44.1525 93.7077 44.3233 93.5631C44.6648 93.274 45.141 92.8517 45.6901 92.311C46.7853 91.2323 48.1861 89.6672 49.3855 87.7327C51.7887 83.8563 53.4392 78.3739 50.0097 72.4366L48.2778 73.4369ZM10.1456 22.6846C13.1287 22.9323 18.9899 23.8672 23.0737 27.2626C25.0857 28.9355 26.6656 31.2043 27.2725 34.3225C27.8827 37.4581 27.5255 41.5412 25.49 46.8528L27.3576 47.5685C29.4833 42.0216 29.9377 37.5479 29.2356 33.9405C28.5302 30.3156 26.6742 27.6552 24.3524 25.7248C19.7685 21.9136 13.3708 20.9456 10.3111 20.6914L10.1456 22.6846ZM25.49 46.8528C23.2368 52.7324 22.7318 56.9695 23.4936 60.1519C24.2701 63.3955 26.3179 65.369 28.7188 66.7969C29.9079 67.5041 31.1987 68.0872 32.474 68.628C33.7705 69.1778 35.0219 69.6725 36.2372 70.2355C38.66 71.3578 40.6572 72.632 41.825 74.6537L43.5568 73.6534C42.0688 71.0771 39.5928 69.5857 37.0778 68.4207C35.8241 67.84 34.4904 67.3107 33.2548 66.7867C31.9978 66.2537 30.8093 65.7132 29.7411 65.0779C27.6274 63.8209 26.0484 62.2335 25.4387 59.6862C24.8142 57.0777 25.1634 53.294 27.3576 47.5685L25.49 46.8528ZM41.825 74.6537C44.3815 79.0798 43.2146 83.1465 41.3039 86.2284C40.3463 87.7731 39.216 89.0394 38.3194 89.9223C37.8726 90.3624 37.4876 90.7035 37.217 90.9326C37.0818 91.047 36.9754 91.1333 36.9044 91.1897C36.869 91.2179 36.8424 91.2386 36.8255 91.2517C36.8171 91.2582 36.8111 91.2628 36.8076 91.2654C36.8058 91.2667 36.8047 91.2676 36.8043 91.2679C36.8041 91.2681 36.804 91.2681 36.8041 91.2681C36.8041 91.268 36.8043 91.2679 36.8044 91.2679C36.8046 91.2677 36.8049 91.2675 37.4057 92.0668C38.0066 92.8662 38.0069 92.8659 38.0073 92.8656C38.0075 92.8655 38.008 92.8652 38.0083 92.8649C38.0091 92.8643 38.01 92.8636 38.0111 92.8628C38.0133 92.8611 38.0161 92.859 38.0196 92.8563C38.0266 92.851 38.0361 92.8437 38.0481 92.8344C38.0721 92.8159 38.1061 92.7894 38.1491 92.7552C38.235 92.6869 38.3573 92.5876 38.5092 92.4591C38.8127 92.2022 39.2354 91.8273 39.7228 91.3473C40.6945 90.3904 41.9382 89.0009 43.0037 87.2823C45.1393 83.8376 46.615 78.9477 43.5568 73.6534L41.825 74.6537Z" fill="#D65751"/>
</svg>
